<?xml version="1.0" standalone="no"?>
<!DOCTYPE svg PUBLIC "-//W3C//DTD SVG 20010904//EN"
 "http://www.w3.org/TR/2001/REC-SVG-20010904/DTD/svg10.dtd">
<svg version="1.0" xmlns="http://www.w3.org/2000/svg"
 width="420.000000pt" height="594.000000pt" viewBox="0 0 420.000000 594.000000"
 preserveAspectRatio="xMidYMid meet">

<g transform="translate(0.000000,594.000000) scale(0.100000,-0.100000)"
fill="currentColor" stroke="none">
<path d="M2152 4703 c-5 -10 -24 -55 -42 -101 -18 -46 -36 -80 -40 -75 -4 4
-24 47 -45 96 -36 79 -42 87 -67 87 l-28 0 0 -125 0 -125 25 0 c25 0 25 2 25
78 l0 77 38 -75 c54 -108 67 -105 126 30 l24 55 1 -83 c1 -81 2 -83 24 -80 15
2 22 10 21 26 0 12 -1 69 -2 127 -2 104 -2 105 -27 105 -13 0 -28 -8 -33 -17z"/>
<path d="M1802 4691 c-12 -7 -11 -22 3 -91 19 -93 12 -125 -29 -136 -52 -13
-72 16 -96 139 -9 47 -15 57 -32 57 -22 0 -22 -13 3 -132 20 -93 85 -131 159
-93 54 28 62 73 34 196 -16 71 -19 75 -42 60z"/>
<path d="M2364 4680 c-11 -4 -33 -22 -47 -40 -21 -24 -27 -42 -27 -78 0 -86
45 -134 125 -134 77 0 128 52 128 132 0 93 -93 155 -179 120z m89 -42 c34 -18
46 -39 47 -81 0 -51 -35 -87 -85 -87 -80 0 -114 92 -56 151 31 31 59 36 94 17z"/>
<path d="M2650 4590 c-11 -11 -20 -33 -20 -50 0 -31 11 -45 74 -94 37 -29 30
-56 -14 -56 -34 0 -70 30 -70 60 0 13 -7 20 -20 20 -32 0 -27 -55 8 -90 56
-55 139 -47 162 16 13 33 -10 78 -48 98 -16 8 -35 22 -42 31 -12 15 -12 19 3
30 26 19 58 6 71 -27 7 -19 17 -28 33 -28 27 0 27 1 9 45 -25 59 -107 84 -146
45z"/>
<path d="M1418 4582 c-10 -2 -18 -7 -18 -11 0 -10 80 -224 86 -230 4 -5 145
48 157 59 4 4 5 14 2 23 -6 14 -14 13 -70 -8 l-64 -24 -27 72 c-44 116 -47
123 -66 119z"/>
<path d="M1134 4325 c20 -49 19 -50 -7 -26 -15 14 -30 21 -34 17 -4 -3 3 -13
15 -22 30 -21 28 -36 -4 -24 -31 12 -34 12 -34 2 0 -4 15 -14 33 -21 l32 -14
-30 -7 c-25 -6 -20 -8 28 -9 l57 -1 -1 63 c-1 52 -3 57 -9 27 l-7 -35 -12 33
c-7 17 -17 32 -23 32 -6 0 -7 -7 -4 -15z"/>
<path d="M3067 4300 c-15 -34 -15 -35 -16 -7 -1 15 -6 27 -11 27 -7 0 -10 -22
-8 -57 l3 -58 58 -3 c35 -2 57 1 57 8 0 5 -15 10 -32 11 l-33 1 33 14 c17 8
32 19 32 24 0 6 -14 3 -31 -5 -40 -21 -46 -15 -14 15 14 13 25 28 25 34 0 5
-13 -3 -30 -19 -31 -30 -38 -28 -19 6 6 11 8 25 6 32 -2 7 -11 -4 -20 -23z"/>
<path d="M773 4102 c-59 -9 -95 -109 -53 -147 29 -26 66 -21 111 14 46 37 73
37 77 0 4 -35 -29 -63 -73 -61 -28 1 -35 -2 -35 -18 0 -39 81 -37 118 3 27 29
43 72 35 94 -11 31 -46 63 -68 63 -12 0 -43 -16 -69 -36 -48 -37 -76 -39 -76
-6 0 26 31 52 63 52 20 0 27 5 27 19 0 20 -21 29 -57 23z"/>
<path d="M3332 4036 c-51 -41 -93 -78 -93 -83 1 -7 21 -35 87 -119 11 -14 44
-10 44 6 0 4 -18 30 -40 58 l-40 50 81 62 c54 42 78 67 75 77 -3 8 -6 17 -6
19 0 12 -24 -3 -108 -70z"/>
<path d="M3505 3879 c-38 -22 -80 -51 -92 -65 -37 -41 -28 -107 21 -146 36
-30 89 -22 171 25 41 23 75 44 75 47 0 3 -5 12 -10 20 -10 16 -5 18 -125 -50
-50 -29 -91 -22 -106 17 -16 42 -2 61 81 110 70 40 78 48 69 64 -5 11 -11 19
-12 18 -1 0 -33 -18 -72 -40z"/>
<path d="M605 3861 c-49 -22 -75 -65 -75 -121 0 -36 6 -48 38 -80 24 -24 52
-41 75 -45 73 -14 149 52 149 130 0 93 -101 156 -187 116z m116 -60 c37 -38
39 -82 4 -116 -35 -36 -88 -34 -126 4 -36 36 -37 70 -3 110 35 42 84 43 125 2z"/>
<path d="M3608 3606 c-109 -38 -139 -58 -105 -72 7 -2 39 5 71 16 33 11 64 20
69 20 5 0 -19 -27 -54 -59 -55 -51 -62 -62 -53 -78 13 -21 48 -30 123 -32 66
-1 59 -11 -30 -40 -57 -19 -66 -25 -62 -42 6 -22 -2 -23 146 24 97 31 109 42
89 75 -6 8 -42 15 -98 19 -49 3 -95 9 -102 13 -9 4 11 28 62 74 42 37 76 75
76 84 -1 40 -14 40 -132 -2z"/>
<path d="M437 3574 c-4 -22 2 -32 26 -53 81 -67 122 -104 125 -111 2 -4 -32
-11 -75 -14 -113 -10 -129 -14 -141 -40 -10 -23 -8 -25 91 -56 56 -17 110 -34
121 -37 16 -5 35 10 36 29 0 3 -35 17 -77 29 -65 19 -73 24 -53 30 14 4 44 7
67 8 57 1 93 16 93 39 0 12 -27 42 -64 73 -36 29 -64 55 -62 56 1 2 35 -7 75
-19 62 -18 74 -19 82 -7 5 8 9 17 9 20 0 3 -51 21 -112 39 -62 18 -118 35
-124 37 -6 2 -14 -8 -17 -23z"/>
<path d="M3686 3260 c-100 -30 -123 -169 -37 -227 86 -58 210 2 211 100 0 50
-30 98 -74 118 -45 20 -57 21 -100 9z m96 -54 c24 -18 39 -63 32 -92 -16 -61
-104 -85 -149 -39 -55 54 -16 145 62 145 21 0 46 -6 55 -14z"/>
<path d="M346 3214 c-10 -26 0 -31 86 -38 92 -8 118 -22 118 -67 0 -52 -22
-62 -127 -54 -88 6 -93 6 -93 -13 0 -15 9 -21 46 -26 82 -11 153 -7 179 10 50
33 50 137 1 169 -18 12 -145 34 -197 35 -4 0 -10 -7 -13 -16z"/>
<path d="M540 2900 l0 -70 -52 0 c-29 0 -77 -3 -105 -6 -44 -6 -53 -10 -53
-27 0 -19 5 -19 128 -12 70 4 128 8 129 9 1 1 0 41 -4 89 -5 76 -8 87 -24 87
-17 0 -19 -9 -19 -70z"/>
<path d="M3637 2926 c-28 -26 -43 -81 -32 -115 17 -55 94 -81 127 -43 9 9 22
40 30 67 10 38 18 50 33 50 30 0 33 -57 5 -83 -12 -11 -18 -25 -14 -35 8 -23
18 -21 51 7 23 20 28 32 28 69 0 56 -25 87 -70 87 -39 0 -60 -21 -74 -76 -14
-52 -35 -72 -56 -54 -33 27 -7 110 34 110 8 0 11 6 7 16 -3 9 -6 18 -6 20 0
13 -41 0 -63 -20z"/>
<path d="M499 2470 l23 -20 -38 -1 c-28 -1 -32 -3 -14 -6 40 -7 45 -20 11 -28
-17 -4 -31 -11 -31 -16 0 -6 10 -7 23 -3 12 4 29 9 37 11 8 3 3 -7 -12 -21
-16 -14 -24 -27 -19 -30 4 -3 16 3 26 14 23 26 39 26 25 1 -13 -25 -13 -34 0
-26 11 7 50 79 50 93 0 8 -84 52 -98 52 -4 -1 4 -10 17 -20z"/>
<path d="M3627 2462 c-45 -15 -48 -18 -43 -43 3 -15 12 -42 21 -60 l15 -34 -5
35 -5 34 30 -29 c16 -16 30 -24 30 -18 0 5 -9 18 -20 28 -27 25 -18 30 19 10
38 -19 42 -1 4 19 l-28 15 33 1 c45 0 40 20 -5 21 -38 1 -38 1 -10 12 15 6 27
14 27 19 0 10 -5 9 -63 -10z"/>
<path d="M695 2155 c-30 -29 -31 -40 -6 -103 21 -52 15 -76 -15 -70 -27 5 -45
47 -32 72 8 15 7 22 -7 32 -24 17 -33 10 -40 -30 -19 -97 108 -166 147 -81 9
21 8 35 -5 73 -21 58 -21 78 -1 86 41 16 76 -43 57 -94 -8 -22 -7 -29 8 -38
16 -10 21 -8 34 18 19 37 19 54 -1 96 -17 36 -58 64 -94 64 -11 0 -32 -11 -45
-25z"/>
<path d="M3351 2099 c-35 -57 -41 -73 -30 -80 21 -13 22 -12 52 36 16 25 33
47 37 50 5 3 47 -19 94 -49 72 -47 86 -53 97 -40 6 8 9 17 6 20 -17 17 -193
134 -201 134 -6 0 -31 -32 -55 -71z"/>
<path d="M3225 1938 c-68 -63 -55 -113 52 -206 54 -46 62 -50 74 -36 11 13 3
24 -55 78 -57 53 -67 68 -64 91 2 16 14 36 29 47 24 18 29 19 55 5 16 -9 49
-36 74 -61 45 -47 67 -56 76 -32 5 14 -88 110 -129 133 -39 22 -75 15 -112
-19z"/>
<path d="M840 1941 c-122 -65 -82 -244 55 -244 51 0 88 21 115 66 38 61 14
145 -50 179 -44 23 -76 23 -120 -1z m94 -35 c89 -37 57 -166 -42 -166 -42 0
-82 38 -82 78 0 42 43 91 88 101 1 1 17 -5 36 -13z"/>
<path d="M3093 1803 c-20 -8 -16 -20 28 -79 23 -30 40 -56 38 -58 -2 -2 -34
13 -71 35 -99 58 -117 43 -87 -72 10 -41 19 -78 19 -83 0 -5 -23 21 -51 59
-46 60 -53 66 -67 52 -14 -14 -8 -26 59 -115 73 -98 75 -100 96 -84 l22 17
-25 100 c-13 55 -24 104 -24 108 0 5 12 0 28 -11 15 -10 57 -36 95 -56 58 -33
70 -36 85 -25 9 7 19 14 21 16 4 3 -139 197 -147 200 -4 1 -13 -1 -19 -4z"/>
<path d="M1040 1679 c-66 -94 -70 -102 -53 -115 10 -7 21 -14 25 -14 3 0 46
24 94 54 49 30 90 54 91 52 2 -2 -7 -49 -19 -106 -21 -100 -22 -103 -3 -116
10 -8 22 -14 25 -14 4 0 37 45 75 101 61 90 66 102 52 116 -13 14 -19 9 -58
-46 -24 -34 -45 -58 -47 -53 -1 4 4 38 11 74 23 109 1 121 -99 58 -35 -22 -66
-40 -69 -40 -3 0 14 28 39 63 35 49 43 66 34 75 -7 7 -15 12 -19 12 -4 0 -40
-45 -79 -101z"/>
<path d="M2745 1583 c-38 -10 -84 -53 -94 -88 -18 -68 29 -155 93 -171 71 -18
153 39 162 112 11 88 -78 169 -161 147z m90 -68 c66 -65 -7 -181 -90 -143 -86
39 -63 168 30 168 25 0 44 -8 60 -25z"/>
<path d="M1424 1572 c-32 -5 -59 -39 -97 -124 -36 -78 -37 -88 -6 -88 12 0 25
21 44 68 15 37 34 75 42 85 33 36 103 9 103 -40 0 -11 -14 -51 -31 -88 -30
-66 -32 -95 -7 -95 18 0 82 146 82 187 0 56 -68 105 -130 95z"/>
<path d="M1606 1495 c-3 -9 -6 -18 -6 -21 0 -2 26 -11 58 -20 31 -9 60 -18 64
-20 3 -3 -5 -45 -18 -95 -26 -92 -26 -119 -1 -119 9 0 25 41 47 120 18 67 31
122 29 124 -2 2 -34 10 -70 19 -36 9 -73 19 -81 22 -9 4 -18 -1 -22 -10z"/>
<path d="M2443 1475 c-52 -22 -69 -78 -37 -123 13 -19 24 -22 80 -22 68 0 89
-15 64 -45 -16 -20 -49 -19 -72 2 -17 16 -20 16 -35 0 -16 -16 -16 -18 3 -38
36 -35 124 -23 152 22 17 26 6 76 -18 89 -10 6 -43 10 -73 10 -34 0 -59 5 -66
14 -29 35 36 76 80 50 45 -25 50 -27 62 -15 9 10 5 19 -21 42 -36 32 -69 36
-119 14z"/>
<path d="M2045 1320 c-21 -22 -34 -40 -28 -40 6 0 16 7 23 15 21 26 31 16 15
-15 -17 -34 -18 -40 -6 -40 5 0 15 15 22 33 l13 32 6 -45 7 -45 2 45 2 45 19
-35 c21 -38 26 -28 9 16 -10 28 -10 28 11 9 11 -10 23 -15 27 -11 8 8 -56 76
-72 76 -6 0 -29 -18 -50 -40z"/>
</g>
</svg>
