<?xml version="1.0" standalone="no"?>
<!DOCTYPE svg PUBLIC "-//W3C//DTD SVG 20010904//EN"
 "http://www.w3.org/TR/2001/REC-SVG-20010904/DTD/svg10.dtd">
<svg version="1.0" xmlns="http://www.w3.org/2000/svg"
 width="50.000000pt" height="30.000000pt" viewBox="0 0 420.000000 200.000000"
 >

<g transform="translate(-20.000000,400.000000) scale(0.100000,-0.100000)"
stroke="none" >
<path d="M1978 3605 l-3 -285 -84 213 c-47 116 -90 226 -97 243 l-13 32 -55
-20 -55 -20 14 -37 c8 -20 53 -132 100 -250 47 -118 85 -219 85 -225 0 -6 -72
61 -160 149 l-160 159 -40 -39 -40 -39 272 -273 c224 -225 278 -273 300 -273
23 0 77 49 300 270 l272 271 -42 42 -42 42 -161 -160 c-106 -105 -158 -151
-154 -135 4 14 50 130 101 259 51 129 92 236 91 237 -1 1 -25 11 -54 22 l-52
20 -39 -97 c-22 -53 -66 -163 -98 -245 l-59 -150 -3 287 -2 287 -60 0 -60 0
-2 -285z"/>
<path d="M2735 2668 c-92 -33 -165 -116 -191 -220 -39 -150 27 -298 164 -365
47 -23 68 -27 136 -26 126 1 215 51 271 154 24 45 30 69 33 139 5 106 -19 178
-79 240 -62 64 -127 90 -224 89 -44 0 -93 -5 -110 -11z m188 -112 c63 -26 117
-111 117 -186 0 -72 -49 -154 -112 -186 -42 -22 -131 -20 -176 4 -108 55 -135
217 -54 314 41 49 81 68 140 68 29 0 67 -6 85 -14z"/>
<path d="M3429 2671 c-77 -25 -119 -82 -119 -163 0 -100 63 -157 195 -178 99
-16 139 -37 143 -76 6 -62 -60 -99 -151 -83 -45 8 -78 36 -102 88 l-17 38 -53
-20 -53 -19 13 -39 c22 -62 62 -106 123 -136 95 -47 232 -33 301 30 32 30 61
94 61 140 0 110 -78 171 -247 192 -58 7 -103 36 -103 65 0 32 47 60 101 60 39
0 52 -5 78 -30 16 -17 32 -39 36 -49 5 -18 7 -18 60 3 30 11 55 25 55 30 0 24
-53 96 -91 122 -37 26 -52 29 -123 31 -45 1 -93 -2 -107 -6z"/>
<path d="M430 2370 l0 -300 215 0 215 0 0 55 0 55 -160 0 -160 0 0 245 0 245
-55 0 -55 0 0 -300z"/>
<path d="M992 2458 c4 -235 11 -269 74 -332 103 -103 310 -90 393 25 42 57 51
115 51 329 l0 190 -60 0 -60 0 0 -201 c0 -224 -7 -257 -63 -286 -43 -22 -123
-20 -156 4 -55 40 -61 69 -61 286 l0 197 -61 0 -61 0 4 -212z"/>
<path d="M1710 2370 l0 -300 55 0 55 0 0 186 c0 102 3 183 8 180 4 -2 36 -75
72 -161 36 -86 75 -168 87 -181 27 -30 90 -33 122 -6 11 9 48 81 81 160 95
227 89 227 90 10 l0 -188 60 0 60 0 0 300 0 301 -76 -3 -75 -3 -96 -227 c-53
-126 -99 -228 -102 -228 -4 0 -50 102 -103 228 l-96 227 -71 3 -71 3 0 -301z"/>
</g>
</svg>
