<?xml version="1.0" standalone="no"?>
<!DOCTYPE svg PUBLIC "-//W3C//DTD SVG 20010904//EN"
 "http://www.w3.org/TR/2001/REC-SVG-20010904/DTD/svg10.dtd">
<svg version="1.0" xmlns="http://www.w3.org/2000/svg"
 width="420.000000pt" height="594.000000pt" viewBox="0 0 420.000000 594.000000"
 preserveAspectRatio="xMidYMid meet">

<g transform="translate(0.000000,594.000000) scale(0.100000,-0.100000)"
fill="currentColor" stroke="none">
<path d="M500 3015 l0 -145 95 0 c88 0 95 1 95 20 0 18 -7 20 -80 20 l-80 0 0
125 c0 104 -2 125 -15 125 -13 0 -15 -23 -15 -145z"/>
<path d="M749 3144 c-9 -11 -9 -18 -1 -26 14 -14 42 -3 42 16 0 20 -27 27 -41
10z"/>
<path d="M1110 3015 c0 -138 1 -145 20 -145 18 0 20 7 20 75 0 68 2 76 25 91
23 15 27 15 50 0 23 -15 25 -23 25 -91 0 -60 3 -75 15 -75 12 0 15 16 15 84 0
79 -2 86 -26 105 -32 25 -40 25 -76 7 l-28 -15 0 55 c0 47 -2 54 -20 54 -19 0
-20 -7 -20 -145z"/>
<path d="M2910 3106 l0 -55 -36 15 c-69 29 -124 -15 -124 -99 0 -38 5 -53 25
-72 28 -29 79 -33 113 -9 20 14 22 14 22 -1 0 -10 7 -15 18 -13 15 3 17 18 17
143 0 125 -2 140 -17 143 -15 3 -18 -5 -18 -52z m-16 -88 c34 -49 5 -118 -49
-118 -54 0 -83 69 -49 118 10 15 25 22 49 22 24 0 39 -7 49 -22z"/>
<path d="M3611 3120 l-2 -45 -20 40 c-14 30 -18 33 -14 13 3 -14 8 -34 12 -45
5 -15 1 -13 -20 6 -15 14 -27 20 -27 15 0 -13 63 -74 76 -74 5 0 28 18 49 40
41 42 39 56 -3 18 l-24 -23 16 39 c21 51 11 60 -11 10 l-17 -39 -7 45 -6 45
-2 -45z"/>
<path d="M1370 3104 c0 -17 -6 -28 -20 -31 -11 -3 -20 -11 -20 -18 0 -7 9 -15
20 -18 17 -4 20 -14 20 -70 0 -74 16 -97 68 -97 34 0 72 29 72 55 0 22 -28 18
-40 -6 -8 -14 -19 -19 -38 -17 -26 3 -27 6 -30 71 l-3 67 51 0 c38 0 50 4 50
15 0 11 -12 15 -50 15 -49 0 -50 1 -50 30 0 20 -5 30 -15 30 -9 0 -15 -10 -15
-26z"/>
<path d="M903 3065 c-17 -7 -36 -22 -42 -34 -15 -26 -13 -92 2 -112 28 -37 81
-49 117 -27 25 16 33 6 25 -32 -14 -63 -95 -78 -120 -22 -11 25 -35 30 -35 6
0 -30 21 -53 59 -65 32 -9 44 -8 73 5 49 24 58 51 58 176 0 88 -3 110 -14 110
-8 0 -16 -5 -18 -11 -2 -6 -14 -5 -33 5 -36 19 -32 19 -72 1z m73 -33 c13 -9
34 -46 34 -62 0 -19 -48 -60 -70 -60 -49 0 -78 73 -43 112 16 18 59 24 79 10z"/>
<path d="M1982 3065 c-70 -31 -78 -146 -12 -180 65 -33 132 -9 151 54 16 53
-8 107 -55 126 -42 18 -42 18 -84 0z m90 -42 c27 -24 24 -87 -4 -107 -68 -48
-141 33 -92 102 18 27 69 30 96 5z"/>
<path d="M2500 3071 c-8 -6 -27 -7 -42 -4 l-28 6 0 -102 c0 -92 2 -102 18 -99
13 3 18 15 20 63 3 90 9 105 37 105 14 0 29 -8 35 -20 6 -11 17 -20 25 -20 24
0 17 37 -11 59 -30 24 -33 24 -54 12z"/>
<path d="M3048 3065 c-16 -9 -28 -20 -28 -25 0 -4 -3 -15 -6 -24 -10 -26 18
-18 42 11 19 24 25 26 50 18 40 -14 44 -43 7 -50 -60 -12 -78 -21 -92 -46 -13
-24 -13 -29 2 -53 19 -29 72 -36 96 -13 11 10 14 10 18 0 3 -7 11 -13 19 -13
11 0 14 18 14 83 0 68 -3 87 -18 100 -27 24 -73 29 -104 12z m92 -114 c0 -43
-63 -68 -90 -36 -22 26 9 49 73 54 11 1 17 -6 17 -18z"/>
<path d="M750 2970 c0 -82 3 -100 15 -100 12 0 15 18 15 100 0 82 -3 100 -15
100 -12 0 -15 -18 -15 -100z"/>
<path d="M1690 2997 c0 -92 15 -117 70 -117 21 0 42 5 45 10 11 19 25 10 25
-15 0 -31 -41 -75 -69 -75 -23 0 -51 25 -51 47 0 20 -24 11 -28 -11 -5 -24 24
-53 58 -61 35 -8 95 16 109 43 6 12 11 73 11 136 0 96 -3 116 -15 116 -12 0
-15 -13 -15 -58 0 -70 -19 -102 -60 -102 -38 0 -50 23 -50 99 0 48 -3 61 -15
61 -12 0 -15 -15 -15 -73z"/>
<path d="M2190 2992 c0 -92 15 -122 61 -122 17 0 39 5 50 10 13 7 19 7 19 0 0
-5 9 -10 20 -10 19 0 20 7 20 100 0 93 -1 100 -20 100 -18 0 -20 -7 -20 -73 0
-80 -9 -97 -52 -97 -37 0 -48 24 -48 104 0 52 -3 66 -15 66 -12 0 -15 -15 -15
-78z"/>
<path d="M3240 3011 c0 -62 13 -110 33 -123 17 -11 65 -10 88 2 17 10 19 7 19
-20 0 -34 -30 -70 -60 -70 -21 0 -54 27 -62 51 -4 11 -8 11 -18 2 -22 -21 3
-60 47 -73 50 -15 87 -1 113 42 17 28 20 51 20 141 0 100 -1 107 -20 107 -18
0 -20 -7 -20 -61 0 -75 -12 -99 -48 -99 -42 0 -52 17 -52 92 0 61 -2 68 -20
68 -18 0 -20 -7 -20 -59z"/>
</g>
</svg>
