<?xml version="1.0" standalone="no"?>
<!DOCTYPE svg PUBLIC "-//W3C//DTD SVG 20010904//EN"
 "http://www.w3.org/TR/2001/REC-SVG-20010904/DTD/svg10.dtd">
<svg version="1.0" xmlns="http://www.w3.org/2000/svg"
 width="420.000000pt" height="594.000000pt" viewBox="0 0 420.000000 594.000000"
 preserveAspectRatio="xMidYMid meet">

<g transform="translate(0.000000,594.000000) scale(0.100000,-0.100000)"
fill="currentColor" stroke="none">
<path d="M1860 3786 c-124 -19 -245 -52 -362 -97 -595 -232 -1013 -804 -1045
-1431 l-6 -128 340 0 340 0 6 88 c30 396 294 733 672 855 332 108 698 25 951
-216 191 -180 284 -379 309 -659 l7 -68 339 0 339 0 0 50 c0 28 -5 94 -11 148
-79 716 -610 1297 -1317 1443 -125 26 -437 34 -562 15z m440 -37 c349 -43 674
-203 930 -459 64 -63 146 -158 182 -210 120 -171 222 -405 262 -600 19 -94 39
-287 31 -300 -4 -6 -122 -10 -299 -10 l-293 0 -12 89 c-32 250 -124 436 -301
611 -136 135 -268 210 -458 262 -115 32 -361 32 -487 0 -115 -29 -290 -114
-380 -186 -215 -172 -359 -437 -382 -703 l-6 -73 -300 0 -300 0 7 96 c31 437
238 840 579 1126 224 187 542 324 842 361 67 9 306 6 385 -4z"/>
<path d="M2145 3593 c-60 -16 -97 -69 -97 -140 0 -51 20 -86 65 -113 87 -54
207 13 207 115 0 39 -28 94 -60 116 -27 20 -84 30 -115 22z m96 -72 c49 -50
37 -121 -27 -147 -76 -32 -143 40 -110 119 26 64 88 76 137 28z"/>
<path d="M1916 3574 c-9 -8 -16 -19 -16 -23 0 -5 -7 -26 -16 -47 l-16 -39 -43
49 c-37 41 -47 48 -69 42 -26 -6 -26 -7 37 -80 53 -59 66 -81 71 -119 6 -42
10 -47 32 -47 19 0 24 4 21 18 -22 77 -19 91 37 225 16 35 15 37 -3 37 -11 0
-27 -7 -35 -16z"/>
<path d="M2426 3472 c-32 -94 -33 -140 -5 -175 28 -36 88 -54 128 -38 44 19
57 38 85 125 31 94 32 102 6 109 -16 4 -23 -6 -45 -77 -37 -111 -62 -135 -115
-106 -41 22 -42 44 -10 136 23 68 27 90 18 96 -27 17 -37 5 -62 -70z"/>
<path d="M1400 3414 c-53 -30 -94 -59 -92 -66 7 -26 20 -28 54 -8 41 24 37 28
98 -85 24 -44 44 -81 46 -83 1 -2 12 2 24 8 l21 11 -24 42 c-78 136 -83 149
-63 161 46 27 56 40 43 57 -11 14 -22 10 -107 -37z"/>
<path d="M2766 3398 c-7 -13 -39 -62 -69 -109 -40 -64 -52 -90 -44 -98 19 -19
35 -12 57 24 39 64 76 36 66 -49 -5 -49 -4 -54 18 -64 23 -10 24 -9 30 49 6
54 9 59 31 59 53 0 90 71 61 115 -15 23 -112 95 -128 95 -4 0 -14 -10 -22 -22z
m108 -95 c3 -7 3 -19 0 -27 -10 -27 -37 -27 -76 -1 l-39 26 21 29 21 30 34
-23 c19 -12 37 -28 39 -34z"/>
<path d="M1188 3273 c-17 -19 -16 -21 17 -53 19 -19 35 -37 35 -41 0 -4 -21
-23 -46 -44 l-46 -38 -37 37 c-35 35 -38 36 -53 19 -16 -17 -11 -24 70 -111
48 -51 93 -93 100 -92 29 0 24 32 -12 69 l-36 37 45 44 45 44 43 -42 c33 -33
46 -39 55 -30 7 7 12 17 12 23 -1 5 -40 52 -88 103 -85 91 -88 93 -104 75z"/>
<path d="M3050 3053 c-52 -41 -96 -79 -98 -82 -1 -4 22 -34 52 -67 52 -57 55
-59 103 -58 84 1 152 74 140 150 -6 35 -74 133 -92 133 -5 0 -53 -34 -105 -76z
m133 -34 c19 -32 19 -39 7 -69 -12 -29 -58 -60 -89 -60 -15 0 -82 61 -79 72 6
16 113 98 127 95 7 -1 22 -18 34 -38z"/>
<path d="M931 2982 c-107 -54 -81 -220 40 -252 76 -21 159 38 159 112 0 19 4
28 13 25 6 -2 17 3 24 12 12 16 -3 31 -69 66 -26 14 -27 14 -53 -30 -14 -25
-23 -50 -20 -55 10 -17 32 -11 48 13 16 22 16 22 16 -10 2 -80 -94 -115 -153
-57 -35 36 -35 86 0 121 17 17 33 24 49 21 18 -4 24 0 28 18 2 13 2 26 -1 29
-11 10 -48 5 -81 -13z"/>
<path d="M3164 2771 c-48 -6 -51 -7 -43 -28 6 -18 16 -23 44 -23 32 0 37 -4
61 -51 l26 -51 -26 -27 c-21 -22 -23 -29 -13 -48 12 -22 16 -19 110 81 92 99
97 106 85 130 -11 25 -14 26 -102 24 -50 -1 -114 -4 -142 -7z m186 -44 c0 -2
-15 -18 -34 -36 l-34 -33 -16 30 c-9 17 -16 33 -16 37 0 3 23 5 50 5 28 0 50
-1 50 -3z"/>
<path d="M760 2691 c-10 -20 5 -28 188 -100 l53 -21 8 23 c6 16 4 24 -8 29
-168 69 -216 88 -222 88 -5 0 -13 -9 -19 -19z"/>
<path d="M3406 2515 c-54 -50 -78 -65 -114 -72 -47 -8 -58 -19 -43 -42 7 -11
19 -12 57 -4 42 8 61 5 133 -19 47 -15 86 -26 89 -24 2 3 1 13 -2 24 -4 13
-28 28 -67 42 l-60 23 46 47 c36 37 44 51 38 67 -7 19 -14 15 -77 -42z"/>
<path d="M919 2471 c-7 -31 -15 -61 -18 -67 -4 -8 -34 -5 -101 12 -119 29
-120 29 -120 1 0 -21 9 -25 118 -50 64 -15 122 -27 128 -27 9 0 44 132 44 167
0 6 -9 13 -20 16 -16 4 -21 -3 -31 -52z"/>
</g>
</svg>
